<?xml version="1.0" encoding="UTF-8"?>
<svg width="256" height="256" version="1.1" viewBox="0 0 256 256" xmlns="http://www.w3.org/2000/svg" xmlns:xlink="http://www.w3.org/1999/xlink">
    <!--Generated by IJSVG (https://github.com/iconjar/IJSVG)-->
    <g transform="scale(7.75758)">
        <path fill="#000" d="M23.622,26.023c-0.915,0.915 -1.008,2.362 -0.21,3.294c0.452,0.528 1.108,0.831 1.801,0.831c0.634,0 1.229,-0.246 1.675,-0.693l5.265,-5.265c0.377,-0.376 0.585,-0.877 0.585,-1.41c0,-0.533 -0.208,-1.034 -0.585,-1.41l-5.265,-5.265c-0.951,-0.952 -2.655,-0.867 -3.512,0.18c-0.758,0.928 -0.652,2.353 0.24,3.245l3.074,3.076c0.063,0.062 0.072,0.136 0.072,0.174c0,0.038 -0.009,0.112 -0.072,0.175l-3.068,3.068Zm3.775,-4.125l-3.074,-3.075c-0.533,-0.533 -0.609,-1.37 -0.172,-1.905c0.263,-0.322 0.649,-0.506 1.062,-0.506c0.365,0 0.709,0.142 0.968,0.401l5.265,5.265c0.188,0.188 0.292,0.438 0.292,0.703c0,0.265 -0.104,0.515 -0.292,0.703l-5.265,5.265c-0.541,0.541 -1.508,0.504 -2.009,-0.081c-0.452,-0.529 -0.382,-1.398 0.157,-1.937l3.068,-3.068c0.235,-0.236 0.365,-0.549 0.365,-0.882c0.001,-0.335 -0.129,-0.648 -0.365,-0.883Z"></path>
        <path fill="#000" d="M1.006,23.892c0.079,0.527 0.358,0.991 0.786,1.308l5.985,4.429c0.41,0.304 0.897,0.465 1.407,0.465c0.868,0 1.667,-0.476 2.086,-1.243c0.56,-1.028 0.237,-2.354 -0.751,-3.084l-3.508,-2.595c-0.109,-0.082 -0.133,-0.237 -0.052,-0.346l2.651,-3.583c0.396,-0.537 0.549,-1.22 0.417,-1.875c-0.131,-0.655 -0.538,-1.227 -1.115,-1.571c-1.01,-0.602 -2.444,-0.268 -3.173,0.715l-4.363,5.898c-0.317,0.428 -0.448,0.954 -0.37,1.482Zm1.174,-0.887l4.365,-5.9c0.285,-0.385 0.749,-0.625 1.211,-0.625c0.233,0 0.45,0.059 0.646,0.175c0.34,0.203 0.57,0.525 0.647,0.909c0.075,0.378 -0.013,0.773 -0.242,1.083l-2.652,3.583c-0.408,0.552 -0.291,1.334 0.261,1.744l3.509,2.596c0.589,0.436 0.79,1.21 0.468,1.801c-0.39,0.713 -1.373,0.933 -2.02,0.453l-5.985,-4.429c-0.214,-0.158 -0.354,-0.39 -0.393,-0.652c-0.039,-0.262 0.026,-0.524 0.185,-0.738Z"></path>
        <path fill="#000" d="M17.065,15.225l-4.254,13.705c-0.188,0.604 -0.128,1.245 0.166,1.804c0.295,0.56 0.79,0.971 1.393,1.158c0.228,0.072 0.464,0.108 0.703,0.108c1.042,0 1.951,-0.669 2.261,-1.666l4.254,-13.705c0.387,-1.247 -0.312,-2.576 -1.56,-2.963c-1.23,-0.381 -2.582,0.337 -2.963,1.559Zm3.568,1.108l-4.254,13.704c-0.22,0.708 -1.005,1.119 -1.712,0.901c-0.35,-0.108 -0.635,-0.346 -0.806,-0.669c-0.17,-0.324 -0.204,-0.694 -0.096,-1.042l4.255,-13.705c0.179,-0.575 0.703,-0.962 1.306,-0.962c0.138,0 0.274,0.021 0.406,0.062c0.72,0.223 1.124,0.991 0.901,1.711Z"></path>
        <path fill="#000" d="M8.5,12.5c0.276,0 0.5,-0.224 0.5,-0.5v-2h2c0.276,0 0.5,-0.224 0.5,-0.5c0,-0.276 -0.224,-0.5 -0.5,-0.5h-2v-2c0,-0.276 -0.224,-0.5 -0.5,-0.5c-0.276,0 -0.5,0.224 -0.5,0.5v2h-2c-0.276,0 -0.5,0.224 -0.5,0.5c0,0.276 0.224,0.5 0.5,0.5h2v2c0,0.276 0.224,0.5 0.5,0.5Z"></path>
        <path fill="#000" d="M6,1v1h-1c-0.276,0 -0.5,0.224 -0.5,0.5c0,0.276 0.224,0.5 0.5,0.5h1v1c0,0.276 0.224,0.5 0.5,0.5c0.276,0 0.5,-0.224 0.5,-0.5v-1h1c0.276,0 0.5,-0.224 0.5,-0.5c0,-0.276 -0.224,-0.5 -0.5,-0.5h-1v-1c0,-0.276 -0.224,-0.5 -0.5,-0.5c-0.276,0 -0.5,0.224 -0.5,0.5Z"></path>
        <path fill="#000" d="M2.5,4.5c-0.276,0 -0.5,0.224 -0.5,0.5v1h-1c-0.276,0 -0.5,0.224 -0.5,0.5c0,0.276 0.224,0.5 0.5,0.5h1v1c0,0.276 0.224,0.5 0.5,0.5c0.276,0 0.5,-0.224 0.5,-0.5v-1h1c0.276,0 0.5,-0.224 0.5,-0.5c0,-0.276 -0.224,-0.5 -0.5,-0.5h-1v-1c0,-0.276 -0.224,-0.5 -0.5,-0.5Z"></path>
    </g>
</svg>