<?xml version="1.0" encoding="UTF-8"?>
<svg width="256" height="256" version="1.1" viewBox="0 0 256 256" xmlns="http://www.w3.org/2000/svg" xmlns:xlink="http://www.w3.org/1999/xlink">
    <!--Generated by IJSVG (https://github.com/iconjar/IJSVG)-->
    <g transform="scale(10.6667)">
        <path fill="#000" d="M12,14c-0.1,0 -0.2,0 -0.3,-0.1l-11,-4c-0.4,-0.1 -0.7,-0.5 -0.7,-0.9c0,-0.4 0.3,-0.8 0.7,-0.9l11,-4c0.2,-0.1 0.5,-0.1 0.7,0l11,4c0.3,0.1 0.6,0.5 0.6,0.9c0,0.4 -0.3,0.8 -0.7,0.9l-11,4c-0.1,0.1 -0.2,0.1 -0.3,0.1Zm-8.1,-5l8.1,2.9l8.1,-2.9l-8.1,-2.9l-8.1,2.9Z"></path>
        <path fill="#000" d="M19,20h-7c-0.6,0 -1,-0.4 -1,-1c0,-0.6 0.4,-1 1,-1h6c-0.1,-2.6 -0.7,-4.8 -1.7,-6.4c-0.3,-0.5 -0.1,-1.1 0.3,-1.4c0.5,-0.3 1.1,-0.1 1.4,0.3c1.3,2.1 2,5 2,8.4c0,0.7 -0.4,1.1 -1,1.1Z"></path>
        <path fill="#000" d="M12,20h-7c-0.6,0 -1,-0.4 -1,-1c0,-3.4 0.7,-6.3 2,-8.4c0.3,-0.5 0.9,-0.6 1.4,-0.3c0.5,0.3 0.6,0.9 0.3,1.4c-1,1.6 -1.6,3.8 -1.7,6.4h6c0.6,0 1,0.4 1,1c0,0.6 -0.4,0.9 -1,0.9Z"></path>
        <path fill="#000" d="M22,20c-0.6,0 -1,-0.4 -1,-1v-10c0,-0.6 0.4,-1 1,-1c0.6,0 1,0.4 1,1v10c0,0.6 -0.4,1 -1,1Z"></path>
    </g>
</svg>