<?xml version="1.0" encoding="UTF-8"?>
<svg width="256" height="256" version="1.1" viewBox="0 0 256 256" xmlns="http://www.w3.org/2000/svg" xmlns:xlink="http://www.w3.org/1999/xlink">
    <!--Generated by IJSVG (https://github.com/iconjar/IJSVG)-->
    <g transform="scale(10.6662)">
        <path fill="none" d="M0,0h24.001v24h-24.001Z"></path>
        <path fill="#000" d="M23.896,0.006l-9.896,1.041v2.012l10.104,-1.065Z"></path>
        <path fill="#000" d="M7,3.795v-2.011l-2.104,0.222l0.208,1.988Z"></path>
        <path fill="#000" d="M5,5h2v2h-2Z"></path>
        <path fill="#000" d="M14,5h10v2h-10Z"></path>
        <path fill="#000" d="M11,0h2v8h-2Z"></path>
        <path fill="#000" d="M16.791,10.406c-0.215,-0.289 -0.492,-0.406 -0.791,-0.406h-6v-9h-2v9h-4c-0.299,0 -0.576,0.117 -0.791,0.406l-0.009,-0.006l-3,4l1.6,1.2l1.598,-2.13l1.616,9.695c0.08,0.481 0.497,0.835 0.986,0.835h8c0.489,0 0.906,-0.354 0.986,-0.835l1.616,-9.695l1.598,2.13l1.6,-1.2l-3,-4l-0.009,0.006Zm-3.638,11.594h-6.306l-1.666,-10h9.639l-1.667,10Z"></path>
    </g>
</svg>